<?xml version="1.0" encoding="UTF-8"?>
<svg id="Layer_1" data-name="Layer 1" xmlns="http://www.w3.org/2000/svg" viewBox="0 0 874 504.75">
  <defs>
    <style>
      .cls-1 {
        fill: none;
      }

      .cls-1, .cls-2, .cls-3, .cls-4 {
        stroke-width: 0px;
      }

      .cls-2 {
        fill: #bd2728;
      }

      .cls-3 {
        fill: #fe5f5f;
      }

      .cls-4 {
        fill: #ffcfcf;
      }
    </style>
  </defs>
  <g>
    <path class="cls-1" d="m436.86,190.98c-127.29-.04-230.28,103.47-230.81,229.95h461.51c.47-124.62-101.64-229.91-230.7-229.95Z"/>
    <path class="cls-1" d="m436.94,114.9c-164.05-.93-306.64,131.24-307.15,306.03h31.08c.45-150.14,121.8-275.65,277.19-275.1,153.59.55,274.6,125.36,274.77,275.1h31.19c-.44-171.25-139.94-306.76-307.09-306.03h.01Z"/>
    <path class="cls-4" d="m436.94,114.9c167.14-.72,306.65,134.78,307.09,306.03h51.14c-.53-200.15-162.06-355.79-355.09-357.35-202.3-1.63-361.89,162.99-361.25,357.35h50.96c.51-174.8,143.1-306.97,307.15-306.03h0Z"/>
    <path class="cls-4" d="m436.86,190.98c129.06.04,231.17,105.33,230.7,229.95h45.27c-.17-149.73-121.18-274.55-274.77-275.1-155.39-.55-276.74,124.96-277.19,275.1h45.18c.52-126.48,103.51-230,230.81-229.95h0Z"/>
  </g>
  <path class="cls-3" d="m440.08,63.59c-142.41-1.15-263.65,80.09-322.73,196.09-2.33,4.58-4.57,9.22-6.7,13.91-.19,1.27-.29,2.56-.29,3.88,0,14.43,11.7,26.13,26.13,26.13,9.02,0,16.97-4.57,21.66-11.51,1.07-2.31,2.18-4.61,3.3-6.89,51.03-103.04,157.73-170.97,275.5-170.3,167.14-.72,306.65,134.78,307.09,306.03h51.14c-.53-200.15-162.06-355.79-355.09-357.35h-.01Z"/>
  <path class="cls-2" d="m438.06,145.84c-48.96-.17-94.54,12.18-134.03,33.86-5.01,2.75-9.92,5.66-14.73,8.7-3.36,4.17-5.38,9.47-5.38,15.25,0,13.43,10.89,24.32,24.32,24.32,1.33,0,2.63-.11,3.9-.31,4.96-3.2,10.06-6.22,15.27-9.05,32.56-17.62,69.82-27.65,109.44-27.63,129.06.04,231.17,105.33,230.7,229.95h45.27c-.17-149.73-121.18-274.55-274.77-275.1h0Z"/>
</svg>