<?xml version="1.0" encoding="UTF-8"?>
<svg id="Layer_1" data-name="Layer 1" xmlns="http://www.w3.org/2000/svg" viewBox="0 0 43.71 76.18">
  <defs>
    <style>
      .cls-1 {
        stroke-width: 0px;
      }
    </style>
  </defs>
  <g id="Ni8zQ3">
    <path class="cls-1" d="m38.17,0c2.13.16,3.9,1.09,4.91,3.14,1.04,2.1.75,4.11-.65,5.95-.33.43-.75.81-1.14,1.2-8.92,8.92-17.83,17.85-26.78,26.74-.87.87-.86,1.32,0,2.18,9.1,9.04,18.16,18.12,27.22,27.19,2.35,2.36,2.59,5.43.65,7.76-2.02,2.42-5.55,2.71-7.93.64-.35-.3-.67-.64-1-.97-10.39-10.39-20.77-20.77-31.16-31.16-3.08-3.08-3.08-6.04,0-9.13C12.79,23.07,23.28,12.6,33.73,2.11c1.23-1.23,2.61-1.99,4.44-2.11Z"/>
  </g>
</svg>