<?xml version="1.0" encoding="UTF-8"?>
<svg id="Layer_1" data-name="Layer 1" xmlns="http://www.w3.org/2000/svg" viewBox="0 0 38.33 38.34">
  <defs>
    <style>
      .cls-1 {
        fill: #78b5ff;
      }

      .cls-1, .cls-2 {
        stroke-width: 0px;
      }

      .cls-2 {
        fill: #3b8bff;
      }
    </style>
  </defs>
  <g id="SOJaLs.tif">
    <g>
      <path class="cls-1" d="m0,20.34v-2.39c.07-.05.08-.13.08-.21,0-.67.12-1.32.23-1.98.43-2.49,1.36-4.78,2.72-6.9,1-1.57,2.22-2.95,3.62-4.17,1.27-1.1,2.66-2.01,4.16-2.75C13.12.79,15.58.2,18.13.03c1.57-.1,3.13.02,4.67.33,1.95.39,3.8,1.05,5.55,2.01,2.23,1.24,4.14,2.84,5.74,4.82,1.12,1.38,2.01,2.89,2.71,4.51.9,2.08,1.36,4.27,1.5,6.52.08,1.39-.02,2.77-.25,4.14-.36,2.16-1.08,4.2-2.15,6.1-.41.72-.81,1.46-1.39,2.07-.08-.09-.16-.17-.23-.26-1.84-2.35-4.1-4.19-6.79-5.48-3.57-1.71-7.31-2.29-11.23-1.69-3.8.58-7.13,2.17-10,4.74-.91.82-1.71,1.74-2.49,2.69-.05-.04-.1-.08-.14-.13-.77-1.03-1.39-2.15-1.93-3.31-.83-1.79-1.33-3.67-1.58-5.63-.05-.37.03-.77-.14-1.13Zm19.16.08c4.09,0,7.42-3.32,7.42-7.41,0-4.09-3.33-7.42-7.41-7.42-4.1,0-7.42,3.32-7.42,7.41,0,4.09,3.32,7.42,7.41,7.42Z"/>
      <path class="cls-2" d="m3.79,30.54c.77-.95,1.57-1.87,2.49-2.69,2.87-2.56,6.19-4.16,10-4.74,3.92-.6,7.66-.02,11.23,1.69,2.69,1.29,4.95,3.13,6.79,5.48.07.09.15.17.23.26-.02.06-.04.13-.07.17-3.14,4.07-7.24,6.54-12.32,7.4-.5.08-1.02.06-1.5.23h-3.09c-.4-.19-.85-.15-1.27-.22-4.54-.73-8.34-2.81-11.42-6.22-.39-.43-.78-.85-1.06-1.36Z"/>
      <path class="cls-2" d="m19.16,20.42c-4.09,0-7.41-3.32-7.41-7.42,0-4.09,3.32-7.41,7.42-7.41,4.09,0,7.42,3.32,7.41,7.42,0,4.09-3.32,7.41-7.42,7.41Z"/>
    </g>
  </g>
</svg>