<?xml version="1.0" encoding="UTF-8"?>
<svg id="Layer_1" data-name="Layer 1" xmlns="http://www.w3.org/2000/svg" viewBox="0 0 46.9 42.51">
  <defs>
    <style>
      .cls-1 {
        fill: #3b8bff;
        stroke-width: 0px;
      }
    </style>
  </defs>
  <path class="cls-1" d="m45.63,17.95c-1.73-1.58-3.52-3.1-5.29-4.64-4.7-4.09-9.4-8.18-14.1-12.27-1.59-1.39-3.96-1.39-5.56,0C14.41,6.5,8.14,11.96,1.85,17.41c-.97.84-1.71,1.78-1.85,3.14l.12,1.16c.48,1.55,1.47,2.6,3.14,2.94.61.13,1.24.05,1.86.05,1.45.02,1.04-.21,1.15,2.15.18,3.68.13,7.36-.02,11.04-.07,1.8.58,3.2,2.15,4.06.37.2.77.29,1.17.4l6.19.16c.98-.23,1.94-.5,2.68-1.23.8-.8,1.2-1.76,1.21-2.88,0-1.07,0-2.57,0-3.96,0-1.25,1.01-2.25,2.25-2.25h3.11c1.24,0,2.25,1,2.25,2.24s0,2.5-.03,3.4c-.09,2.08.88,3.96,3.36,4.54h6.63c1.66-.35,2.8-1.27,3.28-2.94.14-.48.16-.98.16-1.49,0-4.16,0-8.32,0-12.47,0-.77,0-.76.79-.78.76-.02,1.52.09,2.27-.07,1.53-.33,2.56-1.26,3-2.76.44-1.51.06-2.87-1.09-3.92Z"/>
</svg>