<?xml version="1.0" encoding="UTF-8"?>
<svg id="Layer_1" data-name="Layer 1" xmlns="http://www.w3.org/2000/svg" viewBox="0 0 39.04 39.06">
  <defs>
    <style>
      .cls-1 {
        fill: #6eb0ff;
      }

      .cls-1, .cls-2, .cls-3 {
        stroke-width: 0px;
      }

      .cls-2 {
        fill: #3b8bff;
      }

      .cls-3 {
        fill: #0d86ff;
      }
    </style>
  </defs>
  <g id="ui9uSD.tif">
    <g>
      <path class="cls-2" d="m18.04,9.41c0,2.82-.01,5.64.01,8.46,0,.52-.15.89-.52,1.26-4,3.98-7.99,7.97-11.97,11.96q-.62.62-1.17-.04C-4.72,20.02,1.07,3.37,15.05.38c.75-.16,1.51-.23,2.27-.36.54-.09.73.12.73.67-.02,2.9,0,5.81,0,8.71Z"/>
      <path class="cls-3" d="m29.71,21c2.86,0,5.72,0,8.59,0,.72,0,.8.09.72.79-.99,8.67-6.84,15.23-15.29,16.88-5.9,1.16-11.22-.32-15.88-4.14-.41-.34-.39-.57-.02-.93,4.07-4.05,8.13-8.12,12.19-12.18.3-.3.62-.43,1.05-.43,2.88.01,5.77,0,8.65,0Z"/>
    </g>
  </g>
  <path class="cls-1" d="m29.93,18.43c-2.72,0-5.44-.01-8.17.01-.56,0-.75-.17-.74-.76.02-5.65.02-11.3,0-16.95,0-.6.18-.78.76-.72,8.25.85,14.89,6.84,16.73,15.14.19.85.27,1.72.41,2.57.08.52-.11.72-.64.72-2.78-.02-5.57,0-8.35,0Z"/>
</svg>