<?xml version="1.0" encoding="UTF-8"?>
<svg id="Layer_1" data-name="Layer 1" xmlns="http://www.w3.org/2000/svg" viewBox="0 0 63.57 55.11">
  <defs>
    <style>
      .cls-1 {
        stroke-width: 0px;
      }
    </style>
  </defs>
  <g id="_3gs9rN" data-name="3gs9rN">
    <g>
      <path class="cls-1" d="m31.78,55.1c-8,0-16,0-24,0C3.4,55.1,0,51.7,0,47.3c0-10.36,0-20.71,0-31.07,0-4.35,3.41-7.76,7.74-7.77,2.71,0,5.42-.02,8.13.02.69.01,1.04-.16,1.22-.86.24-.91.57-1.81.9-2.69C19.08,2.01,21.96,0,25.08,0c4.47,0,8.95,0,13.42,0,3.12,0,5.99,2,7.08,4.94.35.95.68,1.91.97,2.88.14.48.38.65.89.65,2.84-.02,5.68-.02,8.53,0,4.12.01,7.59,3.46,7.59,7.59,0,10.49,0,20.98,0,31.46,0,4.12-3.47,7.58-7.59,7.58-8.06,0-16.13,0-24.19,0Zm-.01-4.32c7.8,0,15.6,0,23.4,0,.75,0,1.5-.06,2.18-.42,1.34-.73,1.89-1.92,1.89-3.39,0-2.38,0-4.76,0-7.14,0-7.67,0-15.34,0-23.01,0-.78-.07-1.54-.47-2.23-.75-1.3-1.94-1.8-3.38-1.8-3.31,0-6.61,0-9.92,0-1.39,0-2.03-.47-2.48-1.81-.44-1.31-.87-2.63-1.32-3.95-.63-1.86-1.79-2.7-3.76-2.71-4.1,0-8.2,0-12.3,0-1.93,0-3.1.86-3.72,2.67-.46,1.35-.9,2.72-1.36,4.07-.42,1.24-1.1,1.71-2.42,1.72-3.33,0-6.65,0-9.98,0-2.16,0-3.48,1.16-3.79,3.27-.03.24-.04.48-.04.72,0,10,0,20.01,0,30.01,0,1.38.38,2.56,1.58,3.37.75.51,1.59.61,2.46.61,7.8,0,15.6,0,23.4,0Z"/>
      <path class="cls-1" d="m47.7,30.79c.09,8.65-7.18,15.9-15.96,15.87-8.68-.02-15.98-7.24-15.89-16.11.08-8.69,7.34-15.82,16.02-15.78,8.64.04,15.99,7.23,15.83,16.01Zm-15.83-11.64c-6.89.12-11.74,5.43-11.63,11.7.11,6.84,5.55,11.52,11.69,11.42,6.71-.12,11.46-5.43,11.4-11.57-.06-6.83-5.41-11.41-11.46-11.54Z"/>
      <path class="cls-1" d="m52.92,16.93c1.26,0,2.17.9,2.18,2.14,0,1.26-.89,2.17-2.14,2.18-1.26,0-2.17-.89-2.18-2.14,0-1.26.89-2.17,2.14-2.18Z"/>
    </g>
  </g>
</svg>