<?xml version="1.0" encoding="UTF-8"?>
<svg id="Layer_1" data-name="Layer 1" xmlns="http://www.w3.org/2000/svg" viewBox="0 0 511.37 511.88">
  <defs>
    <style>
      .cls-1 {
        fill: #858585;
        stroke-width: 0px;
      }
    </style>
  </defs>
  <g id="WhjquL.tif">
    <path class="cls-1" d="m233.54,0h43.92c3.77.52,7.54,1.07,11.32,1.57,54.49,7.15,102.22,29.25,141.77,67.21,62.42,59.89,88.73,133.51,78.77,219.49-6.33,54.6-28.82,102.4-66.79,141.91-63.87,66.44-142.49,93.91-233,76.68-102.88-19.58-169.25-82.73-200.76-182.46C3.96,309.16,1.92,293.3,0,277.46v-43.91c.96-7.07,1.52-14.22,2.95-21.19C24.02,109.85,84.24,42.16,183.74,9.62,199.9,4.34,216.72,2.04,233.54,0Zm-104.31,394.42c1.78-.39,4.58-.84,7.28-1.61,18.05-5.19,36.02-10.62,54.12-15.62,12.53-3.47,23.02-9.91,32.16-19.11,38.59-38.8,77.33-77.45,116.01-116.16,3.16-3.17,3.22-6.28.18-9.35-20.42-20.51-40.92-40.94-61.19-61.6-3.21-3.27-4.85-2.87-7.84.16-35.53,35.98-71.27,71.74-106.79,107.73-24.12,24.45-22.19,18.15-33.7,56.59-4.43,14.8-8.72,29.65-12.57,44.61-1.9,7.39,3.92,14.2,12.33,14.35h.01Zm265.39-221.35c-.4-9.04-3.34-16.94-9.83-23.38-7.79-7.73-15.42-15.63-23.31-23.26-13.8-13.35-32.58-13.43-46.46-.15-7.93,7.59-15.49,15.56-23.38,23.19-2.53,2.45-2.41,4.07.04,6.5,21.24,21.1,42.4,42.27,63.51,63.5,2.24,2.25,3.8,2.5,6.13.1,7.87-8.12,15.97-16.02,23.88-24.1,6.09-6.22,8.95-13.88,9.41-22.4h0Z"/>
  </g>
</svg>