<?xml version="1.0" encoding="UTF-8"?>
<svg id="Layer_1" data-name="Layer 1" xmlns="http://www.w3.org/2000/svg" viewBox="0 0 99.57 55.37">
  <defs>
    <style>
      .cls-1 {
        fill: #bdd8ff;
      }

      .cls-1, .cls-2 {
        stroke-width: 0px;
      }

      .cls-2 {
        fill: #0062ff;
      }
    </style>
  </defs>
  <rect class="cls-1" width="99.57" height="55.37" rx="4.31" ry="4.31"/>
  <g>
    <path class="cls-2" d="m14.57,37.24l6.76-19.11h4.8l6.29,19.11h-4.57l-4.94-16h1.66l-5.44,16h-4.55Zm4.38-7.44h8.53v4.21h-8.53v-4.21Z"/>
    <path class="cls-2" d="m41.03,37.6c-1.76,0-3.22-.32-4.39-.95-1.17-.64-2.04-1.59-2.62-2.86-.58-1.27-.87-2.85-.87-4.74v-10.92h4.55v11.2c0,1.22.28,2.16.84,2.83.56.67,1.39,1.01,2.5,1.01s1.96-.34,2.51-1.01c.55-.67.83-1.62.83-2.83v-11.2h4.57v10.92c0,1.89-.29,3.47-.88,4.74s-1.46,2.23-2.62,2.86-2.63.95-4.41.95Z"/>
    <path class="cls-2" d="m49.7,22.53v-4.41h15.74v4.41h-15.74Zm5.56,14.71v-17.23h4.57v17.23h-4.57Z"/>
    <path class="cls-2" d="m65.39,27.7c0-1.46.23-2.79.7-4,.47-1.21,1.14-2.25,2.01-3.14.87-.89,1.91-1.58,3.12-2.06,1.21-.49,2.53-.73,3.97-.73s2.76.24,3.97.73c1.21.49,2.25,1.17,3.13,2.06.88.89,1.55,1.94,2.02,3.14.47,1.21.7,2.54.7,4s-.23,2.77-.7,3.98c-.47,1.22-1.14,2.27-2.02,3.16s-1.92,1.57-3.13,2.05c-1.21.48-2.53.72-3.97.72s-2.76-.24-3.97-.72c-1.21-.48-2.25-1.16-3.12-2.05s-1.54-1.94-2.01-3.16c-.47-1.22-.7-2.54-.7-3.98Zm4.63,0c0,1.12.22,2.09.66,2.9.44.81,1.05,1.44,1.84,1.87.79.43,1.67.65,2.67.65s1.93-.21,2.69-.65c.77-.43,1.38-1.06,1.82-1.88.45-.82.67-1.8.67-2.92s-.22-2.09-.67-2.89c-.45-.8-1.06-1.43-1.82-1.87-.77-.44-1.67-.66-2.69-.66s-1.88.22-2.67.66c-.79.44-1.4,1.07-1.84,1.88-.44.81-.66,1.78-.66,2.9Z"/>
  </g>
</svg>