<?xml version="1.0" encoding="UTF-8"?>
<svg id="Layer_1" data-name="Layer 1" xmlns="http://www.w3.org/2000/svg" viewBox="0 0 82.29 79.42">
  <g>
    <rect y="6.14" width="53.62" height="73.27" rx="3.97" ry="3.97" fill="#deebff"/>
    <path d="m12.33,0h29.57c1.84,0,3.34,1.49,3.34,3.34v2.81H8.99v-2.81c0-1.84,1.49-3.34,3.34-3.34Z" fill="#0062ff"/>
    <rect x="6.44" y="22.1" width="18.42" height="18.42" fill="#b8d5ff"/>
    <rect x="29.23" y="22.1" width="18.38" height="2.97" fill="#b8d5ff"/>
    <rect x="29.23" y="26.89" width="18.38" height="2.97" fill="#b8d5ff"/>
    <rect x="29.23" y="31.68" width="12.58" height="2.97" fill="#b8d5ff"/>
    <rect x="29.23" y="37.55" width="5.82" height="2.97" fill="#b8d5ff"/>
    <rect x="6.44" y="45.74" width="16.53" height="2.97" fill="#b8d5ff"/>
    <rect x="6.44" y="50.53" width="7.57" height="2.97" fill="#b8d5ff"/>
    <rect x="6.44" y="55.32" width="13.57" height="2.97" fill="#b8d5ff"/>
    <rect x="6.44" y="60.11" width="11.38" height="2.97" fill="#b8d5ff"/>
    <circle cx="38.42" cy="53.89" r="9.19" fill="#b8d5ff"/>
  </g>
  <g>
    <rect x="51.43" y="18.9" width="9.38" height="50.82" transform="translate(57.65 115.79) rotate(-129.51)" fill="#83b6ff"/>
    <polygon points="33.53 56.85 39.51 64.09 31.27 67.98 28.04 64.06 33.53 56.85" fill="#4d9eff"/>
    <rect x="72.82" y="24.35" width="9.38" height="4.64" transform="translate(106.26 103.43) rotate(-129.51)" fill="#0062ff"/>
    <polygon points="24.94 69.9 24.94 69.9 31.27 67.98 28.03 64.06 24.94 69.9" fill="#0079f2"/>
  </g>
</svg>
