<?xml version="1.0" encoding="UTF-8"?>
<svg id="Layer_1" data-name="Layer 1" xmlns="http://www.w3.org/2000/svg" viewBox="0 0 51.17 51.17">
  <defs>
    <style>
      .cls-1 {
        fill: #5c9eff;
      }

      .cls-1, .cls-2, .cls-3, .cls-4, .cls-5, .cls-6, .cls-7, .cls-8, .cls-9 {
        stroke-width: 0px;
      }

      .cls-2 {
        fill: #83b6ff;
      }

      .cls-3 {
        fill: #3e8dff;
      }

      .cls-4 {
        fill: #227cff;
      }

      .cls-5 {
        fill: #deebff;
      }

      .cls-6 {
        fill: #b8d5ff;
      }

      .cls-7 {
        fill: #92beff;
      }

      .cls-8 {
        fill: #f0f6ff;
      }

      .cls-9 {
        fill: #0062ff;
      }
    </style>
  </defs>
  <g id="Al8UHH">
    <g>
      <path class="cls-3" d="m0,24.28c.29-.72.47-1.47.91-2.13,1.4-2.12,4.17-3.12,6.63-2.35,2.49.78,4.12,3.04,4.05,5.6-.07,2.61-2.26,4.99-4.85,5.37-3.2.48-6.2-1.69-6.65-4.68,0-.04-.05-.08-.08-.12,0-.57,0-1.13,0-1.7Z"/>
      <path class="cls-2" d="m21.69,51.17c-.89-.25-1.76-.53-2.52-1.1-1.66-1.26-2.37-3.43-1.77-5.53.53-1.87,2.43-3.36,4.38-3.58,2.8-.32,5.03,1.47,5.7,3.61.9,2.89-1.11,6.09-4.11,6.51-.1.01-.2,0-.27.1h-1.4Z"/>
      <path class="cls-9" d="m20.69,6.35C20.7,2.84,23.58,0,27.1,0c3.51,0,6.37,2.88,6.37,6.39,0,3.52-2.92,6.41-6.44,6.38-3.5-.02-6.35-2.91-6.34-6.43Z"/>
      <path class="cls-4" d="m12.05,17.72c-3.36,0-6.06-2.65-6.05-5.93,0-3.23,2.74-5.89,6.06-5.89,3.35,0,6.05,2.66,6.04,5.94-.01,3.26-2.71,5.88-6.05,5.87Z"/>
      <path class="cls-1" d="m10.09,44.17c-3.01-.04-5.44-2.36-5.46-5.47-.03-3.02,2.46-5.41,5.48-5.44,2.69-.02,5.42,2.15,5.43,5.43,0,3.05-2.44,5.47-5.45,5.47Z"/>
      <path class="cls-7" d="m35.94,48.88c-2.72.11-4.98-2.25-4.98-4.83,0-2.66,2.27-4.88,5.01-4.87,2.71,0,5.01,2.24,4.99,4.87-.02,2.77-2.37,4.97-5.02,4.84Z"/>
      <path class="cls-6" d="m45.15,39.28c-2.38.15-4.75-2.1-4.68-4.78.06-2.54,2.17-4.67,4.82-4.63,2.51.04,4.62,1.98,4.65,4.68.03,2.55-1.97,4.82-4.78,4.72Z"/>
      <path class="cls-5" d="m42.27,22.28c-.15-2.43,2.08-4.39,4.43-4.39,2.44,0,4.47,2,4.47,4.4,0,2.42-2.04,4.41-4.53,4.39-2.31-.02-4.52-1.95-4.37-4.4Z"/>
      <path class="cls-8" d="m40.87,15.39c-1.88.18-3.96-1.65-3.91-3.95.05-2.04,1.79-3.85,3.97-3.84,2.19,0,3.92,1.99,3.86,4-.06,1.99-1.81,3.95-3.92,3.79Z"/>
    </g>
  </g>
</svg>