<?xml version="1.0" encoding="UTF-8"?>
<svg id="Layer_1" data-name="Layer 1" xmlns="http://www.w3.org/2000/svg" viewBox="0 0 76.95 76.18">
  <defs>
    <style>
      .cls-1 {
        stroke-width: 0px;
      }
    </style>
  </defs>
  <g id="C9ZUQJ">
    <path class="cls-1" d="m39.63,0c11.56.23,22.5,4.39,30.58,14.38,10.48,12.97,8.54,30.61-4.4,41.57-9.47,8.02-20.56,10.74-32.75,9.41-1.13-.12-2.04.1-2.94.77-3.95,2.93-7.92,5.82-11.89,8.73-.42.31-.86.61-1.29.92-.51.36-1.09.56-1.65.25-.67-.37-.65-1.06-.5-1.71.75-3.19,1.48-6.37,2.26-9.55.94-3.82.92-3.77-2.26-5.97C7.16,53.54,1.8,46.69.37,37.3c-1.38-9.11,1.1-17.19,7.21-24.04C15.81,4.04,26.36.08,39.63,0Z"/>
  </g>
</svg>