<?xml version="1.0" encoding="UTF-8"?>
<svg id="Layer_1" data-name="Layer 1" xmlns="http://www.w3.org/2000/svg" viewBox="0 0 417.71 511.49">
  <defs>
    <style>
      .cls-1 {
        fill: #fff;
        stroke-width: 0px;
      }
    </style>
  </defs>
  <g id="HR3xhp">
    <g>
      <path class="cls-1" d="m143.21,511.49h-18.96c-8.2-2.38-15.84-5.86-22.93-10.71-10.71-7.32-19.43-16.67-27.49-26.64C31.99,422.35,6.85,363.67,1,297.04c-2.29-26.09-.95-51.82,7.22-76.87,11.29-34.58,30.85-62.86,63.32-80.81,22.78-12.59,46.96-18.32,72.98-13.25,16.07,3.13,31.3,8.97,46.27,15.41,13.37,5.76,26.43,6.52,39.97.37,8.15-3.7,16.78-6.34,25.22-9.39,23.88-8.62,48.12-12.24,73.37-6.59,28.85,6.45,53.79,19.02,71.55,43.53,3.91,5.4,3.94,5.48-1.47,9.22-12.98,8.97-24.77,19.28-33.18,32.71-21.07,33.65-21.19,69.25-7.56,105.25,9.5,25.11,28.57,41.99,51.78,54.54,8.72,4.72,8.43,3.26,5.06,12.67-12.96,36.13-33.19,68.02-57.3,97.58-12.62,15.47-27.79,27.17-48.34,30.08h-11.98c-2.77-.44-5.55-.83-8.31-1.31-11.68-2.04-22.64-6.43-33.53-10.85-24.53-9.94-48.98-10.13-73.68-.67-12.84,4.91-25.6,10.13-39.17,12.83Z"/>
      <path class="cls-1" d="m207.75,107.49c1.92-38.62,19.71-68.18,51.65-89.36,13.26-8.79,27.86-14.69,43.6-17.54,7.99-1.45,9.28-.7,9.05,7.46-1.33,47.78-23.65,82.62-65.74,104.7-10.6,5.56-22.47,6.7-34.45,5.93-2.94-.19-4.25-1.29-4.13-4.22.09-2.32.02-4.65.02-6.98Z"/>
    </g>
  </g>
</svg>