<?xml version="1.0" encoding="UTF-8"?>
<svg id="Layer_1" data-name="Layer 1" xmlns="http://www.w3.org/2000/svg" viewBox="0 0 36.9 36.94">
  <defs>
    <style>
      .cls-1 {
        stroke-width: 0px;
      }
    </style>
  </defs>
  <g id="RXXu9H">
    <path class="cls-1" d="m16.85,0h3.17c.27.04.54.08.82.11,3.93.52,7.38,2.11,10.23,4.85,4.5,4.32,6.4,9.63,5.68,15.84-.46,3.94-2.08,7.39-4.82,10.24-4.61,4.79-10.28,6.78-16.81,5.53-7.42-1.41-12.21-5.97-14.49-13.17C.29,22.31.14,21.16,0,20.02,0,18.96,0,17.91,0,16.85c.07-.51.11-1.03.21-1.53C1.73,7.93,6.08,3.04,13.26.69c1.17-.38,2.38-.55,3.59-.69Zm1.25,22.44c.5,0,1.01,0,1.51,0,.69,0,.88-.13,1.02-.8.18-.84.64-1.46,1.35-1.92.54-.34,1.08-.67,1.6-1.03,1.39-.97,2.1-2.33,2.08-4.01-.02-1.51-.58-2.85-1.66-3.91-1.98-1.96-4.38-2.72-7.12-2.2-2.4.45-4.26,1.73-5.5,3.86-.28.47-.23.69.19,1.02.75.58,1.5,1.15,2.26,1.72.48.36.75.32,1.14-.14.39-.47.77-.96,1.22-1.36,1.01-.9,2.53-1.02,3.67-.31,1.1.69,1.16,2,.12,2.78-.45.34-.96.6-1.45.86-.74.4-1.37.92-1.9,1.58-.76.95-1.09,2.02-.85,3.23.1.51.28.64.79.64.5,0,1.01,0,1.51,0Zm.11,6.01s0,0,0,0c.6,0,1.2.01,1.8,0,.48-.01.67-.2.65-.67-.04-1.13.07-2.25.05-3.38-.01-.63-.21-.87-.83-.88-1.1-.03-2.2-.03-3.31,0-.65.01-.83.24-.85.9-.04,1.1.1,2.2.02,3.3-.04.5.21.72.72.74.59.01,1.17,0,1.76,0Z"/>
  </g>
</svg>