<svg xmlns="http://www.w3.org/2000/svg" id="Layer_1" data-name="Layer 1" viewBox="0 0 182.06 53.6"><defs><style>.cls-1{fill:none}.cls-1,.cls-2,.cls-3,.cls-4{stroke-width:0}.cls-3{fill:#003684}.cls-4{fill:#0062ff}</style></defs><path d="m17.97 21.66 4.47-4.3L26 18l-4.82 4.82-3.21-1.16z" class="cls-3"/><path d="m31.76 30.17 2.84-5.11 2.15 1.03s-2.15 3.23-2.19 3.57-2.8.51-2.8.51Z" class="cls-4"/><path d="M59.33 36.44c-1.64 0-3.09-.24-4.34-.72s-2.26-1.21-3.02-2.2c-.76-.99-1.23-2.24-1.41-3.76H55c.15.93.45 1.64.92 2.13.46.49 1.01.83 1.63 1.01.63.18 1.28.27 1.97.27 1.22 0 2.17-.23 2.82-.69.66-.46.99-1.14.99-2.04 0-.63-.26-1.16-.78-1.59-.52-.43-1.28-.78-2.26-1.05-.57-.18-1.24-.35-2.02-.52-.78-.16-1.54-.36-2.31-.58s-1.44-.48-2.04-.78c-.81-.45-1.46-1.01-1.95-1.68s-.74-1.49-.74-2.44c0-1.34.34-2.46 1.01-3.36s1.6-1.57 2.78-2.02c1.18-.45 2.55-.67 4.1-.67 2.09 0 3.86.42 5.31 1.25 1.45.84 2.37 2.31 2.76 4.44h-4.44c-.15-.63-.4-1.13-.76-1.5-.36-.37-.79-.63-1.3-.76s-1.08-.2-1.7-.2c-.81 0-1.55.18-2.24.54-.69.36-1.03.93-1.03 1.7s.33 1.34.99 1.68c.66.34 1.37.62 2.15.83.45.09 1.01.21 1.68.36.67.15 1.37.32 2.11.52a9.1 9.1 0 0 1 1.95.74c1.01.45 1.81 1.08 2.37 1.88.57.81.85 1.79.85 2.96 0 1.49-.37 2.7-1.12 3.61-.75.91-1.75 1.58-3.02 2.02s-2.71.65-4.32.65ZM79.67 36.26c-2 0-3.82-.45-5.47-1.34s-2.94-2.11-3.9-3.65-1.43-3.29-1.43-5.26.49-3.73 1.46-5.29c.97-1.55 2.27-2.78 3.9-3.67s3.44-1.34 5.44-1.34 3.82.45 5.44 1.34 2.92 2.12 3.88 3.67c.96 1.55 1.43 3.32 1.43 5.29s-.48 3.73-1.43 5.26c-.96 1.54-2.25 2.75-3.88 3.65s-3.44 1.34-5.44 1.34Zm0-3.81c1.28 0 2.4-.3 3.34-.9a6.34 6.34 0 0 0 2.2-2.37c.52-.99.78-2.06.78-3.23s-.26-2.23-.78-3.2a6.2 6.2 0 0 0-2.2-2.35c-.94-.6-2.05-.9-3.34-.9s-2.36.3-3.32.9c-.96.6-1.7 1.38-2.22 2.35-.52.97-.78 2.04-.78 3.2s.26 2.24.78 3.23c.52.99 1.25 1.78 2.2 2.37.94.6 2.05.9 3.34.9ZM95.4 35.9V19.86h-4.79v-3.67h4.79V8.57h4.3v7.62h4.75v3.67H99.7V35.9h-4.3ZM115.38 36.26c-2 0-3.82-.45-5.47-1.34s-2.94-2.11-3.9-3.65-1.43-3.29-1.43-5.26.49-3.73 1.46-5.29c.97-1.55 2.27-2.78 3.9-3.67s3.44-1.34 5.44-1.34 3.82.45 5.44 1.34 2.92 2.12 3.88 3.67c.96 1.55 1.43 3.32 1.43 5.29s-.48 3.73-1.43 5.26c-.96 1.54-2.25 2.75-3.88 3.65s-3.44 1.34-5.44 1.34Zm0-3.81c1.28 0 2.4-.3 3.34-.9a6.34 6.34 0 0 0 2.2-2.37c.52-.99.78-2.06.78-3.23s-.26-2.23-.78-3.2a6.2 6.2 0 0 0-2.2-2.35c-.94-.6-2.05-.9-3.34-.9s-2.36.3-3.32.9c-.96.6-1.7 1.38-2.22 2.35-.52.97-.78 2.04-.78 3.2s.26 2.24.78 3.23c.52.99 1.25 1.78 2.2 2.37.94.6 2.05.9 3.34.9ZM129.53 35.9V16.19h4.3v3.05c.66-.99 1.52-1.81 2.58-2.49 1.06-.67 2.29-1.01 3.7-1.01 1.61 0 2.96.33 4.05.99 1.09.66 1.9 1.6 2.44 2.82.54 1.23.81 2.69.81 4.39V35.9h-4.3V23.94c0-.78-.11-1.49-.34-2.15-.22-.66-.59-1.18-1.1-1.57-.51-.39-1.21-.58-2.11-.58-1.29 0-2.35.34-3.2 1.01-.85.67-1.49 1.58-1.9 2.71-.42 1.14-.63 2.39-.63 3.76v8.78h-4.3ZM161.16 47.1c-1.28 0-2.5-.21-3.65-.63-1.15-.42-2.19-1-3.11-1.75a8.97 8.97 0 0 1-2.24-2.67 9.25 9.25 0 0 1-1.08-3.38h4.35c.33 1.43 1.03 2.57 2.11 3.4 1.08.84 2.24 1.25 3.49 1.25s2.31-.3 3.25-.9c.94-.6 1.69-1.4 2.24-2.4.55-1 .83-2.08.83-3.25v-3.9c-.42.63-.99 1.2-1.7 1.72-.72.52-1.53.94-2.44 1.25s-1.92.47-3.02.47c-1.85 0-3.52-.48-5-1.43a9.911 9.911 0 0 1-3.45-3.79c-.82-1.57-1.23-3.26-1.23-5.08s.41-3.52 1.23-5.08 1.97-2.83 3.45-3.79c1.48-.96 3.14-1.43 5-1.43 1.1 0 2.11.16 3.02.47.91.31 1.72.74 2.42 1.28s1.28 1.11 1.72 1.7v-3h4.35V36.5c0 1.97-.47 3.76-1.41 5.35-.94 1.6-2.21 2.87-3.81 3.81s-3.37 1.41-5.31 1.41Zm0-14.65c1.19 0 2.25-.3 3.18-.9.93-.6 1.66-1.39 2.2-2.37.54-.99.81-2.03.81-3.14 0-1.17-.27-2.22-.81-3.18a6.691 6.691 0 0 0-2.2-2.35c-.93-.61-1.99-.92-3.18-.92s-2.22.3-3.16.9c-.94.6-1.68 1.38-2.22 2.35-.54.97-.81 2.04-.81 3.2s.27 2.2.81 3.18c.54.99 1.28 1.77 2.22 2.35s1.99.87 3.16.87Z" class="cls-2"/><path d="m35.22 26.72-2.26 2.26c.95-.52 1.74-1.31 2.26-2.26ZM16.83 21.32l2.26-2.26c-.95.52-1.74 1.31-2.26 2.26ZM25.89 27.9l.06-.06 8.04-8.04c-1-.88-2.3-1.42-3.73-1.42-1.57 0-3.03.63-4.11 1.77l-.06.06-8.04 8.04c1 .88 2.3 1.42 3.73 1.42 1.57 0 3.03-.63 4.11-1.77Z" class="cls-1"/><path d="M30.26 12.61c-1.46 0-2.89.29-4.22.83-1.51.6-2.9 1.52-4.04 2.72l-2.91 2.91-2.26 2.26a5.622 5.622 0 0 0 1.23 6.93l8.04-8.04.06-.06a5.612 5.612 0 0 1 4.11-1.77c1.43 0 2.73.54 3.73 1.42 1.17 1.04 1.92 2.54 1.92 4.23 0 .98-.25 1.9-.69 2.7-.52.95-1.31 1.74-2.26 2.26l-2.91 2.91a11.49 11.49 0 0 1-4.04 2.72c1.35.54 2.8.83 4.25.83 6.29 0 11.41-5.12 11.41-11.41s-5.12-11.41-11.41-11.41Z" class="cls-4"/><path d="m33.99 19.8-8.04 8.04-.06.06a5.612 5.612 0 0 1-4.11 1.77c-1.43 0-2.73-.54-3.73-1.42-1.17-1.04-1.92-2.54-1.92-4.23 0-.98.25-1.9.69-2.7.52-.95 1.31-1.74 2.26-2.26l2.91-2.91a11.49 11.49 0 0 1 4.04-2.72c-1.35-.54-2.8-.83-4.25-.83-6.29 0-11.41 5.12-11.41 11.41s5.12 11.41 11.41 11.41c1.46 0 2.89-.29 4.22-.83 1.51-.6 2.9-1.52 4.04-2.72l2.91-2.91 2.26-2.26a5.622 5.622 0 0 0-1.23-6.93Z" class="cls-3"/></svg>